<svg xmlns="http://www.w3.org/2000/svg" fill="none" height="493" width="475"><path d="M0 250V0h475v250z" fill="#FFCC28"></path><path d="M0 493V250h475v243z" fill="#019D12"></path><g clip-path="url(#a)"><path fill="#FFFACA" d="m179.39 252.08-91.63 85.19L74 350.04l40.6.05 10.33-12.78 68.7-85.23h-14.24z"></path><path fill="#FFEDAE" d="m204.24 252.08-51.55 85.19-7.75 12.77 40.62.05 4.31-12.78 28.61-85.23h-14.24z"></path><path fill="#00B327" d="m229.09 252.08-11.48 85.19-1.74 12.77 40.65.05-1.7-12.78-11.49-85.23h-14.24zm24.85 0 28.6 85.19 4.27 12.77 40.68.05-7.72-12.78-51.59-85.23h-14.24z"></path><path fill="#019D12" d="m278.79 252.08 68.67 85.19 10.29 12.77 40.7.05-13.74-12.78-91.68-85.23h-14.24z"></path><path fill="#FFFACA" d="M193.63 223.87h-14.24v28.21h14.24v-28.21z"></path><path fill="#FFEDAE" d="M218.48 207.63h-14.24v44.45h14.24v-44.45z"></path><path fill="#019D12" d="M243.33 189.69h-14.24v62.39h14.24v-62.39zm24.85-18.27h-14.24v80.66h14.24v-80.66zm24.85-18.61h-14.24v99.27h14.24v-99.27z"></path><path fill="#fff" d="m179.39 252.08-91.63 85.19L74 350.04l40.6.05 10.33-12.78 68.7-85.23h-14.24zm24.85 0-51.55 85.19-7.75 12.77 40.62.05 4.31-12.78 28.61-85.23h-14.24zm24.85 0-11.48 85.19-1.74 12.77 40.65.05-1.7-12.78-11.49-85.23h-14.24zm24.85 0 28.6 85.19 4.27 12.77 40.68.05-7.72-12.78-51.59-85.23h-14.24zm24.85 0 68.67 85.19 10.29 12.77 40.7.05-13.74-12.78-91.68-85.23h-14.24z"></path><path fill="#FFFACA" d="m185.59 208.64-16.71 23.34h33.43l-16.72-23.34z"></path><path fill="#FFEDAE" d="m211.48 188.85-16.72 23.33h33.43l-16.71-23.33z"></path><path fill="#019D12" d="m235.84 169.56-16.71 23.33h33.43l-16.72-23.33zm25.21-18.27-16.71 23.33h33.43l-16.72-23.33zM285.58 132l-16.71 23.33h33.43L285.58 132z"></path></g><defs><clipPath id="a"><path d="M0 0h324.45v218.09H0z" transform="translate(74 132)" fill="#fff"></path></clipPath></defs></svg>